<?xml version="1.0" encoding="UTF-8" standalone="no"?>
<!-- Created with Inkscape (http://www.inkscape.org/) -->

<svg
   xmlns:dc="http://purl.org/dc/elements/1.1/"
   xmlns:cc="http://creativecommons.org/ns#"
   xmlns:rdf="http://www.w3.org/1999/02/22-rdf-syntax-ns#"
   xmlns:svg="http://www.w3.org/2000/svg"
   xmlns="http://www.w3.org/2000/svg"
   xmlns:xlink="http://www.w3.org/1999/xlink"
   xmlns:sodipodi="http://sodipodi.sourceforge.net/DTD/sodipodi-0.dtd"
   xmlns:inkscape="http://www.inkscape.org/namespaces/inkscape"
   width="160"
   height="40"
   viewBox="0 0 42.333334 10.583333"
   version="1.1"
   id="svg8"
   inkscape:version="0.92.2 (5c3e80d, 2017-08-06)"
   sodipodi:docname="up2cl.svg"
   inkscape:export-filename="/home/master/up2cl.png"
   inkscape:export-xdpi="96"
   inkscape:export-ydpi="96">
  <defs
     id="defs2">
    <linearGradient
       inkscape:collect="always"
       id="linearGradient4634">
      <stop
         style="stop-color:#00ffff;stop-opacity:1;"
         offset="0"
         id="stop4630" />
      <stop
         style="stop-color:#ffffff;stop-opacity:1"
         offset="1"
         id="stop4632" />
    </linearGradient>
    <linearGradient
       inkscape:collect="always"
       xlink:href="#linearGradient4634"
       id="linearGradient4636"
       x1="70.247498"
       y1="128.92871"
       x2="70.283409"
       y2="134.74182"
       gradientUnits="userSpaceOnUse" />
    <linearGradient
       inkscape:collect="always"
       xlink:href="#linearGradient4634"
       id="linearGradient4657"
       gradientUnits="userSpaceOnUse"
       x1="70.247498"
       y1="128.92871"
       x2="70.283409"
       y2="134.74182" />
  </defs>
  <sodipodi:namedview
     id="base"
     pagecolor="#ffffff"
     bordercolor="#666666"
     borderopacity="1.0"
     inkscape:pageopacity="0.0"
     inkscape:pageshadow="2"
     inkscape:zoom="3.959798"
     inkscape:cx="30.042527"
     inkscape:cy="66.586214"
     inkscape:document-units="mm"
     inkscape:current-layer="text4506"
     showgrid="false"
     inkscape:window-width="1920"
     inkscape:window-height="1021"
     inkscape:window-x="0"
     inkscape:window-y="0"
     inkscape:window-maximized="1"
     units="px"
     fit-margin-top="0"
     fit-margin-left="0"
     fit-margin-right="0"
     fit-margin-bottom="0"
     inkscape:snap-path-clip="true" />
  <metadata
     id="metadata5">
    <rdf:RDF>
      <cc:Work
         rdf:about="">
        <dc:format>image/svg+xml</dc:format>
        <dc:type
           rdf:resource="http://purl.org/dc/dcmitype/StillImage" />
        <dc:title></dc:title>
      </cc:Work>
    </rdf:RDF>
  </metadata>
  <g
     inkscape:label="Layer 1"
     inkscape:groupmode="layer"
     id="layer1"
     transform="translate(-61.813054,-113.13363)">
    <g
       aria-label="up2cl"
       style="font-style:normal;font-weight:normal;font-size:10.58333302px;line-height:1.25;font-family:sans-serif;letter-spacing:0px;word-spacing:0px;fill:#000000;fill-opacity:1;stroke:none;stroke-width:0.26458332"
       id="text4506">
      <g
         id="g4645"
         transform="translate(22.48405,-12.695303)">
        <use
           height="100%"
           width="100%"
           transform="translate(5.8208336)"
           id="use4638"
           xlink:href="#path830-3-6-7"
           y="0"
           x="0" />
        <ellipse
           ry="3.2740517"
           rx="4.2261992"
           cy="131.9355"
           cx="70.148521"
           id="path830-3-6-7"
           style="font-style:normal;font-weight:normal;font-size:10.58333302px;line-height:1.25;font-family:sans-serif;letter-spacing:0px;word-spacing:0px;opacity:1;fill:url(#linearGradient4657);fill-opacity:1;stroke:#53e0ff;stroke-width:0.37;stroke-miterlimit:4;stroke-dasharray:none;stroke-opacity:1" />
        <use
           height="100%"
           width="100%"
           transform="translate(3.1750001,-2.1166622)"
           id="use4640"
           xlink:href="#path830-3-6-7"
           y="0"
           x="0" />
      </g>
      <g
         id="g4711"
         transform="translate(1.0583333)">
        <path
           id="path4512"
           transform="matrix(0.26458333,0,0,0.26458333,61.813054,113.13363)"
           d="M 4.5449219,8.6230469 V 26.103516 c 0,2.226557 0.045594,3.717468 0.1367187,4.472656 0.091143,0.742186 0.3190205,1.458333 0.6835938,2.148437 0.377605,0.690104 0.957034,1.243502 1.7382812,1.660157 0.781251,0.416768 1.7643255,0.625 2.9492184,0.625 1.983378,-0.01576 2.880085,-0.0069 3.5625,0.002 v -4.59375 c -0.539232,-0.003 -0.874736,-0.18988 -1.003906,-0.564453 -0.117203,-0.377613 -0.175781,-1.57552 -0.175781,-3.59375 V 8.6230469 Z"
           style="font-style:normal;font-variant:normal;font-weight:normal;font-stretch:normal;font-family:Impact;-inkscape-font-specification:Impact;fill:#333333;stroke-width:0.99999994"
           inkscape:connector-curvature="0" />
        <path
           inkscape:connector-curvature="0"
           id="path4514"
           style="font-style:normal;font-variant:normal;font-weight:normal;font-stretch:normal;font-family:Impact;-inkscape-font-specification:Impact;fill:#333333;stroke-width:0.26458332"
           d="m 70.710387,115.41509 -0.03617,0.60461 q 0.279053,-0.3669 0.61495,-0.54777 0.335896,-0.18086 0.733805,-0.18086 0.485758,0 0.837158,0.26355 0.356568,0.25838 0.444417,0.59944 0.08785,0.34107 0.08785,1.15756 v 2.88871 q 0,0.93534 -0.113688,1.33325 -0.10852,0.39274 -0.454752,0.63045 -0.341065,0.23255 -0.826823,0.23255 -0.387573,0 -0.718303,-0.18087 -0.330729,-0.18087 -0.604614,-0.53744 v 1.57097 h -2.087728 v -7.83415 z m 0.594279,1.99471 q 0,-0.63562 -0.04651,-0.76998 -0.04651,-0.13436 -0.258382,-0.13436 -0.206706,0 -0.268718,0.15503 -0.05684,0.15503 -0.05684,0.74931 v 2.8422 q 0,0.62012 0.06201,0.77515 0.06201,0.15503 0.268717,0.15503 0.201538,0 0.248047,-0.13953 0.05168,-0.14469 0.05168,-0.69246 z" />
        <path
           inkscape:connector-curvature="0"
           id="path4516"
           style="font-style:normal;font-variant:normal;font-weight:normal;font-stretch:normal;font-family:Impact;-inkscape-font-specification:Impact;fill:#800080;stroke-width:0.26458332"
           d="m 78.585875,120.84628 v 1.42627 H 73.99184 v -1.19372 q 2.041219,-3.3383 2.423625,-4.12895 0.387573,-0.79582 0.387573,-1.24023 0,-0.34107 -0.118856,-0.50643 -0.113688,-0.17054 -0.351399,-0.17054 -0.237712,0 -0.356568,0.18604 -0.113688,0.18603 -0.113688,0.73897 v 0.79582 H 73.99184 v -0.30489 q 0,-0.7028 0.07235,-1.10588 0.07235,-0.40824 0.356568,-0.80098 0.28422,-0.39274 0.738973,-0.59428 0.454752,-0.20154 1.090372,-0.20154 1.245402,0 1.881022,0.62012 0.640788,0.61495 0.640788,1.56063 0,0.7183 -0.361735,1.51928 -0.356567,0.80099 -2.113566,3.40031 z" />
        <path
           inkscape:connector-curvature="0"
           id="path4518"
           style="font-style:normal;font-variant:normal;font-weight:normal;font-stretch:normal;font-family:Impact;-inkscape-font-specification:Impact;fill:#333333;stroke-width:0.26458332"
           d="m 84.011899,118.00408 h -1.968872 v -0.79065 q 0,-0.41341 -0.06718,-0.55811 -0.06718,-0.14986 -0.248047,-0.14986 -0.180868,0 -0.242879,0.12919 -0.06201,0.1292 -0.06201,0.57878 v 3.23494 q 0,0.36691 0.09302,0.55294 0.09302,0.18087 0.273885,0.18087 0.211873,0 0.28422,-0.1912 0.07752,-0.19121 0.07752,-0.72347 v -0.81649 h 1.860351 q -0.0052,0.82165 -0.06201,1.23507 -0.05168,0.40824 -0.346232,0.84232 -0.289388,0.42892 -0.759643,0.65112 -0.470256,0.21705 -1.16272,0.21705 -0.883667,0 -1.400431,-0.29973 -0.516764,-0.30489 -0.733805,-0.84749 -0.211874,-0.54777 -0.211874,-1.55029 v -1.94821 q 0,-0.87333 0.1757,-1.31774 0.1757,-0.44442 0.749308,-0.79065 0.573609,-0.3514 1.395264,-0.3514 0.816488,0 1.395264,0.34623 0.578776,0.34623 0.769978,0.87333 0.191203,0.5271 0.191203,1.49345 z" />
        <path
           inkscape:connector-curvature="0"
           id="path4520"
           style="font-style:normal;font-variant:normal;font-weight:normal;font-stretch:normal;font-family:Impact;-inkscape-font-specification:Impact;fill:#333333;stroke-width:0.26458332"
           d="m 86.77659,113.90614 v 8.36641 h -2.14974 v -8.36641 z" />
        <path
           sodipodi:nodetypes="cccc"
           inkscape:connector-curvature="0"
           id="path4661"
           d="m 66.714078,113.92999 -1.318529,1.48515 h 2.747549 z"
           style="fill:#333333;fill-opacity:1;stroke:none;stroke-width:0.26458332px;stroke-linecap:butt;stroke-linejoin:miter;stroke-opacity:1" />
        <use
           height="100%"
           width="100%"
           transform="matrix(-1,0,0,1,130.83084,0)"
           id="use4702"
           xlink:href="#path4512"
           y="0"
           x="0" />
      </g>
    </g>
  </g>
</svg>
