<?xml version="1.0" encoding="UTF-8" standalone="no"?>
<!-- Created with Inkscape (http://www.inkscape.org/) -->

<svg
   xmlns:dc="http://purl.org/dc/elements/1.1/"
   xmlns:cc="http://creativecommons.org/ns#"
   xmlns:rdf="http://www.w3.org/1999/02/22-rdf-syntax-ns#"
   xmlns:svg="http://www.w3.org/2000/svg"
   xmlns="http://www.w3.org/2000/svg"
   xmlns:xlink="http://www.w3.org/1999/xlink"
   xmlns:sodipodi="http://sodipodi.sourceforge.net/DTD/sodipodi-0.dtd"
   xmlns:inkscape="http://www.inkscape.org/namespaces/inkscape"
   width="160"
   height="40"
   viewBox="0 0 42.333334 10.583333"
   version="1.1"
   id="svg8"
   inkscape:version="0.92.2 (5c3e80d, 2017-08-06)"
   sodipodi:docname="up2cl.svg"
   inkscape:export-filename="/home/master/up2cl.png"
   inkscape:export-xdpi="96"
   inkscape:export-ydpi="96">
  <defs
     id="defs2">
    <linearGradient
       inkscape:collect="always"
       id="linearGradient4634">
      <stop
         style="stop-color:#00ffff;stop-opacity:1;"
         offset="0"
         id="stop4630" />
      <stop
         style="stop-color:#ffffff;stop-opacity:1"
         offset="1"
         id="stop4632" />
    </linearGradient>
    <linearGradient
       inkscape:collect="always"
       xlink:href="#linearGradient4634"
       id="linearGradient4636"
       x1="70.247498"
       y1="128.92871"
       x2="70.283409"
       y2="134.74182"
       gradientUnits="userSpaceOnUse" />
  </defs>
  <sodipodi:namedview
     id="base"
     pagecolor="#ffffff"
     bordercolor="#666666"
     borderopacity="1.0"
     inkscape:pageopacity="0.0"
     inkscape:pageshadow="2"
     inkscape:zoom="2.8"
     inkscape:cx="87.624069"
     inkscape:cy="82.146199"
     inkscape:document-units="mm"
     inkscape:current-layer="text832"
     showgrid="false"
     inkscape:window-width="1920"
     inkscape:window-height="1021"
     inkscape:window-x="0"
     inkscape:window-y="0"
     inkscape:window-maximized="1"
     units="px"
     fit-margin-top="0"
     fit-margin-left="0"
     fit-margin-right="0"
     fit-margin-bottom="0"
     inkscape:snap-path-clip="true" />
  <metadata
     id="metadata5">
    <rdf:RDF>
      <cc:Work
         rdf:about="">
        <dc:format>image/svg+xml</dc:format>
        <dc:type
           rdf:resource="http://purl.org/dc/dcmitype/StillImage" />
        <dc:title />
      </cc:Work>
    </rdf:RDF>
  </metadata>
  <g
     inkscape:label="Layer 1"
     inkscape:groupmode="layer"
     id="layer1"
     transform="translate(-61.813054,-113.13363)">
    <g
       aria-label="up2cl"
       style="font-style:normal;font-weight:normal;font-size:10.58333302px;line-height:1.25;font-family:sans-serif;letter-spacing:0px;word-spacing:0px;fill:#000000;fill-opacity:1;stroke:none;stroke-width:0.26458332"
       id="text4506">
      <g
         id="g4711"
         transform="translate(1.0583333)">
        <g
           aria-label="up2cloud"
           style="font-style:normal;font-weight:normal;font-size:10.58333302px;line-height:1.25;font-family:sans-serif;letter-spacing:0px;word-spacing:0px;fill:#000000;fill-opacity:1;stroke:none;stroke-width:0.07000434"
           id="text832"
           transform="translate(-0.52916663,-10.583334)">
          <path
             d="m 70.394026,126.0803 -0.03617,0.60461 q 0.279052,-0.3669 0.614949,-0.54777 0.335897,-0.18087 0.733806,-0.18087 0.485758,0 0.837158,0.26355 0.356567,0.25839 0.444417,0.59945 0.08785,0.34106 0.08785,1.15755 v 2.88871 q 0,0.93535 -0.113688,1.33326 -0.108521,0.39274 -0.454753,0.63045 -0.341064,0.23254 -0.826823,0.23254 -0.387573,0 -0.718302,-0.18086 -0.330729,-0.18087 -0.604614,-0.53744 v 1.57096 h -2.087728 v -7.83414 z m 0.594279,1.99471 q 0,-0.63562 -0.04651,-0.76998 -0.04651,-0.13436 -0.258382,-0.13436 -0.206706,0 -0.268717,0.15503 -0.05684,0.15503 -0.05684,0.74931 v 2.8422 q 0,0.62012 0.06201,0.77515 0.06201,0.15503 0.268718,0.15503 0.201538,0 0.248047,-0.13953 0.05168,-0.14469 0.05168,-0.69246 z"
             style="font-style:normal;font-variant:normal;font-weight:normal;font-stretch:normal;font-family:Impact;-inkscape-font-specification:Impact;fill:#800080;stroke-width:0.07000434"
             id="path836"
             inkscape:connector-curvature="0" />
          <path
             d="m 78.269515,131.51149 v 1.42627 H 73.67548 v -1.19373 q 2.041219,-3.33829 2.423624,-4.12894 0.387574,-0.79582 0.387574,-1.24024 0,-0.34106 -0.118856,-0.50643 -0.113688,-0.17053 -0.3514,-0.17053 -0.237711,0 -0.356567,0.18604 -0.113688,0.18603 -0.113688,0.73897 v 0.79582 H 73.67548 v -0.30489 q 0,-0.7028 0.07235,-1.10588 0.07235,-0.40824 0.356567,-0.80098 0.284221,-0.39275 0.738973,-0.59428 0.454753,-0.20154 1.090373,-0.20154 1.245402,0 1.881022,0.62012 0.640788,0.61495 0.640788,1.56062 0,0.71831 -0.361735,1.51929 -0.356568,0.80099 -2.113566,3.40031 z"
             style="font-style:normal;font-variant:normal;font-weight:normal;font-stretch:normal;font-family:Impact;-inkscape-font-specification:Impact;fill:#008080;stroke-width:0.07000434"
             id="path838"
             inkscape:connector-curvature="0" />
          <path
             d="m 83.695539,128.66929 h -1.968872 v -0.79065 q 0,-0.41341 -0.06718,-0.55811 -0.06718,-0.14986 -0.248047,-0.14986 -0.180867,0 -0.242879,0.12919 -0.06201,0.12919 -0.06201,0.57878 v 3.23494 q 0,0.3669 0.09302,0.55294 0.09302,0.18087 0.273885,0.18087 0.211874,0 0.284221,-0.19121 0.07751,-0.1912 0.07751,-0.72347 v -0.81648 h 1.860352 q -0.0052,0.82165 -0.06201,1.23506 -0.05168,0.40825 -0.346232,0.84233 -0.289388,0.42891 -0.759644,0.65112 -0.470255,0.21704 -1.162719,0.21704 -0.883667,0 -1.400432,-0.29972 -0.516764,-0.30489 -0.733805,-0.84749 -0.211873,-0.54777 -0.211873,-1.5503 v -1.9482 q 0,-0.87333 0.1757,-1.31775 0.175699,-0.44441 0.749308,-0.79065 0.573608,-0.3514 1.395263,-0.3514 0.816488,0 1.395264,0.34624 0.578776,0.34623 0.769979,0.87333 0.191203,0.5271 0.191203,1.49345 z"
             style="font-style:normal;font-variant:normal;font-weight:normal;font-stretch:normal;font-family:Impact;-inkscape-font-specification:Impact;fill:#00ffff;stroke-width:0.07000434"
             id="path840"
             inkscape:connector-curvature="0" />
          <path
             d="m 86.460229,124.57135 v 8.36641 H 84.31049 v -8.36641 z"
             style="font-style:normal;font-variant:normal;font-weight:normal;font-stretch:normal;font-family:Impact;-inkscape-font-specification:Impact;fill:#00ffff;stroke-width:0.07000434"
             id="path842"
             inkscape:connector-curvature="0" />
          <path
             style="font-style:normal;font-variant:normal;font-weight:normal;font-stretch:normal;font-size:10.58333302px;line-height:1.25;font-family:Impact;-inkscape-font-specification:Impact;letter-spacing:0px;word-spacing:0px;fill:#00ffff;fill-opacity:1;stroke:none;stroke-width:0.26458332"
             d="m 120.35156,57.298828 c -0.0189,0.420617 -0.0371,0.841889 -0.0371,1.300781 v 6.640625 c 0,2.200517 0.14323,3.854166 0.42969,4.960938 0.28646,1.093745 0.76172,2.031246 1.42578,2.8125 0.67708,0.768227 1.6211,1.347654 2.83203,1.738281 1.21094,0.3776 2.68881,0.566406 4.4336,0.566406 1.5625,0 2.9427,-0.221353 4.14062,-0.664062 1.21094,-0.45571 2.20052,-1.152345 2.96875,-2.089844 0.76823,-0.950526 1.26953,-1.966132 1.50391,-3.046875 0.23438,-1.093745 0.35156,-2.805985 0.35156,-5.136719 v -6.347656 c 0,-0.261485 -0.008,-0.491907 -0.0137,-0.734375 h -7.87695 v 10.734375 c 0,1.119799 -0.0781,1.848955 -0.23438,2.1875 -0.14323,0.338545 -0.44922,0.507813 -0.91797,0.507813 -0.45573,0 -0.76172,-0.182277 -0.91797,-0.546875 -0.15624,-0.3776 -0.23437,-1.178382 -0.23437,-2.402344 V 57.298828 Z"
             id="path844-8"
             inkscape:connector-curvature="0"
             transform="matrix(0.26458333,0,0,0.26458333,60.754721,113.13363)" />
          <path
             inkscape:connector-curvature="0"
             style="font-style:normal;font-variant:normal;font-weight:normal;font-stretch:normal;font-size:10.58333302px;line-height:1.25;font-family:Impact;-inkscape-font-specification:Impact;letter-spacing:0px;word-spacing:0px;fill:#800080;fill-opacity:1;stroke:none;stroke-width:0.07000434"
             d="m 62.930802,126.67362 c -0.005,0.11129 -0.0098,1.84307 -0.0098,1.96448 v 1.757 c 0,0.58222 0.0379,1.01975 0.113689,1.31259 0.07579,0.28938 0.201539,0.53743 0.377238,0.74414 0.179144,0.20326 0.428916,0.35656 0.749308,0.45992 0.320394,0.0999 0.711414,0.14986 1.173056,0.14986 0.413412,0 0.77859,-0.0586 1.095539,-0.1757 0.320395,-0.12058 0.582221,-0.30489 0.785482,-0.55294 0.203261,-0.25149 0.335897,-0.52021 0.39791,-0.80615 0.06201,-0.28939 0.09302,-0.74242 0.09302,-1.35909 v -1.67949 c 0,-0.0692 -0.0021,-2.35183 -0.0036,-2.41598 l -2.08411,0.0167 v 5.04511 c 0,0.29628 -0.02066,0.4892 -0.06201,0.57877 -0.0379,0.0896 -0.118856,0.13436 -0.242879,0.13436 -0.120579,0 -0.201539,-0.0482 -0.24288,-0.14469 -0.04134,-0.0999 -0.06201,-0.31178 -0.06201,-0.63562 v -4.40999 z"
             id="path844-8-2"
             sodipodi:nodetypes="csscccscccssccscscscc" />
          <text
             xml:space="preserve"
             style="font-style:normal;font-weight:normal;font-size:10.58333302px;line-height:1.25;font-family:sans-serif;letter-spacing:0px;word-spacing:0px;fill:#000000;fill-opacity:1;stroke:none;stroke-width:0.01852198"
             x="91.084442"
             y="120.80318"
             id="text943"><tspan
               sodipodi:role="line"
               id="tspan941"
               x="91.084442"
               y="130.16695"
               style="stroke-width:0.01852198" /></text>
          <g
             id="g1063">
            <path
               transform="matrix(0.26458333,0,0,0.26458333,61.283887,123.71696)"
               id="path844-8-1"
               d="M 149.4707 8.5292969 L 149.4707 16.080078 L 149.4707 24.855469 L 149.4707 28.033203 C 149.4707 29.153002 149.39255 29.882158 149.23633 30.220703 C 149.09311 30.559248 148.78712 30.728516 148.31836 30.728516 C 147.8626 30.728516 147.55661 30.546239 147.40039 30.181641 C 147.24417 29.804041 147.16602 29.003259 147.16602 27.779297 L 147.16602 24.855469 L 139.27539 24.855469 L 139.27539 25.240234 C 139.27539 27.440751 139.41862 29.0944 139.70508 30.201172 C 139.99154 31.294917 140.4668 32.232418 141.13086 33.013672 C 141.80794 33.781899 142.75195 34.361326 143.96289 34.751953 C 145.17383 35.129553 146.6517 35.318359 148.39648 35.318359 C 149.95899 35.318359 151.3392 35.097006 152.53711 34.654297 C 153.74804 34.198587 154.73761 33.501952 155.50586 32.564453 C 156.27411 31.613927 156.77543 30.598321 157.00977 29.517578 C 157.2441 28.423833 157.36133 26.711593 157.36133 24.380859 L 157.36133 18.033203 C 157.36133 16.19726 157.23111 14.830085 156.9707 13.931641 C 156.7233 13.033222 156.25454 12.160815 155.56445 11.314453 C 154.87434 10.468091 153.89128 9.7844908 152.61523 9.2636719 C 151.70131 8.8773607 150.65052 8.6360717 149.4707 8.5292969 z "
               style="font-style:normal;font-variant:normal;font-weight:normal;font-stretch:normal;font-size:10.58333302px;line-height:1.25;font-family:Impact;-inkscape-font-specification:Impact;letter-spacing:0px;word-spacing:0px;fill:#00ffff;fill-opacity:1;stroke:none;stroke-width:0.26458332" />
            <path
               inkscape:connector-curvature="0"
               id="path844-8-1-2"
               d="m 98.133816,131.02558 v -0.1018 c 0,-0.58222 0.0379,-1.01975 0.11369,-1.31258 0.0758,-0.28939 0.20155,-0.53743 0.37724,-0.74414 0.17915,-0.20326 0.42891,-0.35657 0.7493,-0.45992 0.3204,-0.0999 0.711414,-0.14986 1.173054,-0.14986 0.0975,0 0.19208,0.004 0.28422,0.0109 v 1.91668 c 0,-0.29628 -0.0207,-0.48921 -0.062,-0.57878 -0.0379,-0.0896 -0.11886,-0.13436 -0.24288,-0.13436 -0.12059,0 -0.20155,0.0482 -0.24288,0.1447 -0.0413,0.0999 -0.062,0.31178 -0.062,0.63562 v 0.77359 z"
               style="font-style:normal;font-variant:normal;font-weight:normal;font-stretch:normal;font-size:10.58333302px;line-height:1.25;font-family:Impact;-inkscape-font-specification:Impact;letter-spacing:0px;word-spacing:0px;fill:#00ffff;fill-opacity:1;stroke:none;stroke-width:0.07000434" />
          </g>
          <g
             id="g1051">
            <path
               inkscape:connector-curvature="0"
               id="path844"
               d="m 89.467695,128.09403 c -0.558104,0 -1.016302,0.10851 -1.374593,0.32556 -0.358289,0.21704 -0.606336,0.50471 -0.74414,0.863 -0.11226,0.29188 -0.176078,0.68151 -0.196887,1.15858 h 2.07791 v -0.33176 c 0,-0.3514 0.02067,-0.57189 0.06201,-0.66146 0.04134,-0.093 0.124023,-0.13953 0.248047,-0.13953 0.124026,0 0.204985,0.0465 0.242879,0.13953 0.03789,0.0896 0.05684,0.31006 0.05684,0.66146 v 0.33176 h 2.084113 c -0.0081,-0.39081 -0.04018,-0.69473 -0.09974,-0.9002 -0.06546,-0.23771 -0.189479,-0.46853 -0.37207,-0.69247 -0.182589,-0.22393 -0.442693,-0.4048 -0.780312,-0.5426 -0.334174,-0.14125 -0.735528,-0.21187 -1.204063,-0.21187 z"
               style="font-style:normal;font-variant:normal;font-weight:normal;font-stretch:normal;font-family:Impact;-inkscape-font-specification:Impact;fill:#00ffff;stroke-width:0.07000434" />
            <path
               inkscape:connector-curvature="0"
               id="path844-0"
               d="m 87.142257,130.29116 v 0.0708 c 0,0.58222 0.0379,1.01974 0.113688,1.31258 0.07579,0.28938 0.201538,0.53743 0.377238,0.74414 0.179144,0.20326 0.428913,0.35657 0.749307,0.45992 0.320395,0.0999 0.711412,0.14986 1.173057,0.14986 0.413412,0 0.77859,-0.0586 1.095539,-0.1757 0.320395,-0.12057 0.582221,-0.30489 0.785482,-0.55294 0.203258,-0.25149 0.335896,-0.5202 0.397909,-0.80615 0.05639,-0.26313 0.08583,-0.66878 0.09095,-1.20251 h -2.085663 v 0.80977 c 0,0.29628 -0.02067,0.4892 -0.06201,0.57878 -0.0379,0.0896 -0.118856,0.13435 -0.24288,0.13435 -0.120578,0 -0.201538,-0.0482 -0.242879,-0.14469 -0.04134,-0.0999 -0.06201,-0.31178 -0.06201,-0.63562 v -0.74259 z"
               style="font-style:normal;font-variant:normal;font-weight:normal;font-stretch:normal;font-size:10.58333302px;line-height:1.25;font-family:Impact;-inkscape-font-specification:Impact;letter-spacing:0px;word-spacing:0px;fill:#00ffff;fill-opacity:1;stroke:none;stroke-width:0.07000434" />
          </g>
        </g>
        <path
           sodipodi:nodetypes="cccc"
           inkscape:connector-curvature="0"
           id="path4661-5"
           d="m 66.045067,114.04372 -1.318529,1.48515 h 2.747549 z"
           style="font-style:normal;font-weight:normal;font-size:10.58333302px;line-height:1.25;font-family:sans-serif;letter-spacing:0px;word-spacing:0px;fill:#800080;fill-opacity:1;stroke:none;stroke-width:0.26458332px;stroke-linecap:butt;stroke-linejoin:miter;stroke-opacity:1" />
      </g>
    </g>
  </g>
</svg>
